# xmcd
#
# Track frame offsets: 
#        150
#        14185
#        26620
#        46833
#        68935
#        79203
#        95693
#        119626
#        135890
#        152360
#        188730
#        203926
#        212785
#        223767
#        239913
#        252257
#        272392
#        297161
#        305948
#        319354
#
# Disc length: 4595 seconds
#
# Revision: 0
# Processed by: cddbd v1.5.2PL0 Copyright (c) Steve Scherf et al.
# Submitted via: ExactAudioCopy v0.99pb3
#
DISCID=3711f114
DTITLE=Dive - Dive Box [CD3)
DYEAR=2012
DGENRE=Industrial
TTITLE0=Running Circle
TTITLE1=Vicious Bitch
TTITLE2=Power of Passion
TTITLE3=Man in the Mirror
TTITLE4=Sickness
TTITLE5=Automatique
TTITLE6=No Pain No Game
TTITLE7=Killing Time
TTITLE8=Rocket USA
TTITLE9=Welcome to Hell Part 2
TTITLE10=Nightshift
TTITLE11=Burning Skin
TTITLE12=Eye of the Past
TTITLE13=Back to Back
TTITLE14=Time Zone
TTITLE15=Shadows of You
TTITLE16=Sparks
TTITLE17=Homeless
TTITLE18=Kick Your Head
TTITLE19=Lost Horizon
EXTD=
EXTT0=
EXTT1=
EXTT2=
EXTT3=
EXTT4=
EXTT5=
EXTT6=
EXTT7=
EXTT8=
EXTT9=
EXTT10=
EXTT11=
EXTT12=
EXTT13=
EXTT14=
EXTT15=
EXTT16=
EXTT17=
EXTT18=
EXTT19=
PLAYORDER=
